<!--?xml version="1.0" standalone="no"?-->
              <svg id="sw-js-blob-svg" viewBox="0 0 100 100" xmlns="http://www.w3.org/2000/svg" version="1.1">
                    <defs> 
                        <linearGradient id="sw-gradient" x1="0" x2="1" y1="1" y2="0">
                            <stop id="stop1" stop-color="rgba(255, 191, 35, 1)" offset="0%"></stop>
                            <stop id="stop2" stop-color="rgba(255, 255, 255, 1)" offset="100%"></stop>
                        </linearGradient>
                    </defs>
                <path fill="url(#sw-gradient)" d="M20.7,-26.2C26.8,-19.6,31.7,-13,33.8,-5.3C36,2.4,35.4,11.2,31.4,18.2C27.5,25.3,20.2,30.5,12.7,32C5.1,33.5,-2.7,31.3,-9.7,28.1C-16.6,24.9,-22.6,20.7,-27.9,14.7C-33.1,8.6,-37.5,0.6,-37.1,-7.4C-36.7,-15.4,-31.5,-23.3,-24.5,-29.8C-17.5,-36.3,-8.8,-41.2,-0.7,-40.4C7.3,-39.5,14.6,-32.8,20.7,-26.2Z" width="100%" height="100%" transform="translate(50 50)" stroke-width="0" style="transition: all 0.3s ease 0s;" stroke="url(#sw-gradient)"></path>
              </svg>